<svg width="20" height="16" viewBox="0 0 20 16" xmlns="http://www.w3.org/2000/svg">
    <title>
        Twitter
    </title>
    <path d="M17.257 4.064c.007.17.01.34.01.513 0 5.232-3.98 11.264-11.263 11.264-2.236 0-4.317-.653-6.07-1.776.31.036.625.055.945.055 1.853 0 3.56-.634 4.915-1.696-1.733-.032-3.195-1.177-3.698-2.75.24.047.49.072.744.072.36 0 .71-.05 1.044-.14C2.074 9.243.71 7.643.71 5.726v-.05c.534.295 1.144.473 1.793.494C1.44 5.46.743 4.246.743 2.873c0-.726.194-1.406.535-1.99 1.953 2.394 4.87 3.97 8.16 4.136-.067-.29-.102-.593-.102-.904 0-2.186 1.772-3.96 3.96-3.96 1.138 0 2.167.482 2.89 1.252.9-.18 1.748-.508 2.513-.962-.297.924-.925 1.7-1.743 2.19.8-.095 1.564-.308 2.274-.623-.53.794-1.2 1.49-1.974 2.05" fill="#1A1918" fill-rule="evenodd"/>
</svg>
